<?xml version="1.0" encoding="UTF-8" standalone="no"?>
<svg
   xmlns:osb="http://www.openswatchbook.org/uri/2009/osb"
   xmlns:dc="http://purl.org/dc/elements/1.1/"
   xmlns:cc="http://creativecommons.org/ns#"
   xmlns:rdf="http://www.w3.org/1999/02/22-rdf-syntax-ns#"
   xmlns:svg="http://www.w3.org/2000/svg"
   xmlns="http://www.w3.org/2000/svg"
   xmlns:xlink="http://www.w3.org/1999/xlink"
   xmlns:sodipodi="http://sodipodi.sourceforge.net/DTD/sodipodi-0.dtd"
   xmlns:inkscape="http://www.inkscape.org/namespaces/inkscape"
   width="2.07667in"
   height="1.00333in"
   viewBox="0 0 623 301"
   version="1.1"
   id="svg3"
   sodipodi:docname="test1.svg"
   inkscape:version="1.0.1 (3bc2e813f5, 2020-09-07)">
  <metadata
     id="metadata9">
    <rdf:RDF>
      <cc:Work
         rdf:about="">
        <dc:format>image/svg+xml</dc:format>
        <dc:type
           rdf:resource="http://purl.org/dc/dcmitype/StillImage" />
        <dc:title></dc:title>
      </cc:Work>
    </rdf:RDF>
  </metadata>
  <defs
     id="defs7">
    <linearGradient
       id="linearGradient2840"
       osb:paint="solid">
      <stop
         style="stop-color:#00ff00;stop-opacity:1;"
         offset="0"
         id="stop2838" />
    </linearGradient>
    <linearGradient
       inkscape:collect="always"
       xlink:href="#linearGradient2840"
       id="linearGradient2842"
       x1="79.260094"
       y1="37.094186"
       x2="140.10902"
       y2="37.094186"
       gradientUnits="userSpaceOnUse" />
  </defs>
  <sodipodi:namedview
     pagecolor="#ffffff"
     bordercolor="#666666"
     borderopacity="1"
     objecttolerance="10"
     gridtolerance="10"
     guidetolerance="10"
     inkscape:pageopacity="0"
     inkscape:pageshadow="2"
     inkscape:window-width="1920"
     inkscape:window-height="1016"
     id="namedview5"
     showgrid="false"
     inkscape:snap-nodes="true"
     inkscape:zoom="6.6111453"
     inkscape:cx="70.56266"
     inkscape:cy="48.00858"
     inkscape:window-x="0"
     inkscape:window-y="0"
     inkscape:window-maximized="1"
     inkscape:current-layer="svg3" />
  <path
     id="Selection"
     fill="none"
     stroke="black"
     stroke-width="1"
     d="M 6.00,14.00            C 6.00,14.00 115.00,14.00 115.00,14.00              138.49,14.00 164.54,12.80 186.00,24.12              213.09,38.41 219.58,74.09 203.45,99.00              195.13,111.85 178.10,121.87 163.00,124.00              163.00,124.00 189.00,158.00 189.00,158.00              203.37,176.29 209.74,190.94 235.00,193.00              235.00,193.00 235.00,218.00 235.00,218.00              235.00,218.00 172.00,218.00 172.00,218.00              172.00,218.00 164.46,217.01 164.46,217.01              164.46,217.01 147.15,195.00 147.15,195.00              147.15,195.00 111.63,147.00 111.63,147.00              111.63,147.00 98.83,131.60 98.83,131.60              98.83,131.60 93.00,131.00 93.00,131.00              93.00,131.00 85.00,131.00 85.00,131.00              85.00,131.00 85.00,168.00 85.00,168.00              85.06,173.24 85.91,181.77 89.42,185.81              94.16,191.29 105.07,192.68 112.00,193.00              112.00,193.00 112.00,218.00 112.00,218.00              112.00,218.00 6.00,218.00 6.00,218.00              6.00,218.00 6.00,193.00 6.00,193.00              22.54,191.66 31.91,188.66 32.00,170.00              32.00,170.00 32.00,63.00 32.00,63.00              31.99,59.73 32.07,57.24 31.32,54.00              28.29,40.90 17.08,40.46 6.00,39.00              6.00,39.00 6.00,14.00 6.00,14.00 Z            M 247.00,14.00            C 247.00,14.00 350.00,14.00 350.00,14.00              370.41,14.00 392.72,12.61 411.00,23.45              445.50,43.91 449.00,98.92 417.00,121.10              391.16,139.00 355.90,136.00 326.00,136.00              326.00,136.00 326.00,168.00 326.00,168.00              326.07,173.83 326.94,182.50 331.22,186.78              335.77,191.32 346.72,192.71 353.00,193.00              353.00,193.00 353.00,218.00 353.00,218.00              353.00,218.00 247.00,218.00 247.00,218.00              247.00,218.00 247.00,193.00 247.00,193.00              263.53,192.24 272.91,188.16 273.00,170.00              273.00,170.00 273.00,63.00 273.00,63.00              272.99,59.73 273.07,57.24 272.32,54.00              269.29,40.90 258.08,40.46 247.00,39.00              247.00,39.00 247.00,14.00 247.00,14.00 Z            M 85.00,102.00            C 85.00,102.00 101.00,102.00 101.00,102.00              105.97,101.98 121.41,100.70 126.00,99.52              131.68,98.06 137.30,95.66 141.56,91.53              147.70,85.59 150.30,78.45 149.96,70.00              149.04,47.25 129.62,42.82 111.00,42.04              105.32,41.80 90.58,42.62 87.09,47.39              84.82,50.48 85.01,55.34 85.00,59.00              85.00,59.00 85.00,102.00 85.00,102.00 Z            M 326.00,108.00            C 335.56,108.09 344.52,108.96 354.00,106.52              360.01,104.98 366.38,102.07 370.96,97.82              386.02,83.84 382.35,55.38 364.00,45.99              356.52,42.16 346.19,41.17 338.00,42.81              334.63,43.48 330.92,44.32 328.74,47.22              326.24,50.55 326.01,58.85 326.00,63.00              326.00,63.00 326.00,108.00 326.00,108.00 Z            M 514.00,65.43            C 537.24,62.56 567.57,66.97 586.00,82.32              595.92,90.59 602.73,100.07 607.55,112.00              619.26,141.00 612.85,182.15 588.00,202.54              567.08,219.69 546.74,221.30 521.00,221.00              501.64,220.77 478.21,211.43 465.17,197.00              443.16,172.62 439.43,127.96 456.46,100.00              469.76,78.16 489.91,69.37 514.00,65.43 Z            M 526.00,96.30            C 506.75,100.06 503.14,117.13 501.87,134.00              501.14,144.59 500.73,142.93 501.87,154.00              502.38,159.43 502.13,160.22 503.42,166.00              506.47,179.61 512.38,190.80 528.00,191.00              531.36,191.04 534.77,191.15 538.00,190.08              558.73,183.21 557.20,152.40 557.00,135.00              556.91,127.37 554.82,116.88 551.51,110.00              546.40,99.40 537.39,95.20 526.00,96.30 Z            M 0.00,281.00            C 4.60,281.00 10.74,281.43 15.00,279.87              27.09,275.45 36.66,263.34 46.04,255.00              49.87,251.60 51.13,251.14 55.00,248.43              63.43,242.53 68.27,237.06 79.00,237.00              79.00,237.00 107.00,237.00 107.00,237.00              116.16,237.13 121.14,242.73 126.05,250.00              127.84,252.65 131.70,259.77 135.08,260.12              137.61,260.39 139.90,257.65 141.39,255.96              144.30,252.64 150.18,245.40 154.17,243.74              156.29,242.85 159.68,243.00 162.00,243.00              162.00,243.00 187.00,243.00 187.00,243.00              201.02,243.02 199.40,245.88 210.00,251.94              210.00,251.94 222.00,257.55 222.00,257.55              231.68,261.47 232.48,260.17 239.00,262.04              239.00,262.04 272.00,273.00 272.00,273.00              272.00,273.00 287.00,277.67 287.00,277.67              295.98,280.70 297.49,282.87 308.00,283.00              319.86,283.14 318.25,283.07 330.00,285.26              334.39,286.08 339.60,287.97 344.00,286.93              344.00,286.93 370.00,276.72 370.00,276.72              370.00,276.72 394.00,269.74 394.00,269.74              400.47,268.12 405.69,267.83 412.00,264.62              415.93,262.62 420.74,258.41 423.47,254.96              424.95,253.10 426.80,249.30 428.47,248.17              430.57,246.75 434.50,247.00 437.00,247.00              437.00,247.00 463.00,247.00 463.00,247.00              477.49,247.07 480.38,254.71 489.43,264.28              492.47,267.50 496.58,273.56 501.00,274.14              501.00,274.14 511.00,273.07 511.00,273.07              511.00,273.07 539.00,269.43 539.00,269.43              539.00,269.43 563.00,266.57 563.00,266.57              585.40,263.25 599.72,260.00 623.00,260.00              623.00,262.62 623.50,270.40 622.01,272.26              620.46,274.20 614.45,274.66 612.00,275.00              612.00,275.00 587.00,278.58 587.00,278.58              587.00,278.58 557.00,282.72 557.00,282.72              557.00,282.72 541.00,284.46 541.00,284.46              541.00,284.46 514.00,291.14 514.00,291.14              505.37,293.72 508.04,294.98 498.00,295.00              498.00,295.00 469.00,295.00 469.00,295.00              466.95,294.96 464.92,294.98 463.05,293.98              458.05,291.30 452.96,277.53 445.00,277.44              445.00,277.44 432.00,280.58 432.00,280.58              420.38,283.19 408.99,286.47 398.00,291.14              388.07,295.37 384.72,298.94 373.00,299.00              373.00,299.00 356.00,300.00 356.00,300.00              356.00,300.00 329.00,300.00 329.00,300.00              329.00,300.00 305.00,298.68 305.00,298.68              305.00,298.68 284.00,294.17 284.00,294.17              284.00,294.17 258.00,292.21 258.00,292.21              258.00,292.21 242.00,286.00 242.00,286.00              242.00,286.00 218.00,278.58 218.00,278.58              210.24,275.66 193.95,269.99 186.00,269.38              179.81,268.91 177.28,275.71 173.71,279.57              168.87,284.82 163.40,289.47 158.00,294.13              155.94,295.91 152.15,299.61 149.72,300.48              147.95,301.12 144.92,301.00 143.00,301.00              143.00,301.00 112.00,301.00 112.00,301.00              109.80,300.98 107.16,301.12 105.21,299.98              102.96,298.67 100.30,294.26 98.86,292.00              93.04,282.88 91.86,276.70 88.00,267.00              80.82,271.57 79.43,274.43 73.58,279.49              67.09,285.09 50.66,294.85 42.00,295.00              26.97,295.24 15.43,297.04 0.00,295.00              0.00,295.00 0.00,281.00 0.00,281.00 Z" />
  <path
     style="fill:#a0a0a0;stroke:none;stroke-width:0.15126"
     d="m 2.1176361,65.790865 v -3.772224 l 0.7184837,-0.08837 C 4.3775524,61.740683 6.0559106,61.382651 6.8780601,61.068033 7.9540022,60.656293 9.1262895,59.617065 9.6250232,58.632862 10.44606,57.012622 10.431455,57.402827 10.434294,37.01188 10.436135,23.789643 10.386828,17.910002 10.269391,17.348116 9.6576821,14.421346 7.5687825,12.886294 3.6302333,12.469253 1.951372,12.291484 2.1176361,12.734882 2.1176361,8.4354081 V 4.6555464 L 24.61752,4.7169574 c 23.467882,0.064053 23.5118,0.0652 27.113305,0.7078796 7.139725,1.2740671 11.713218,4.2854614 14.218273,9.36195 1.936454,3.92422 2.214966,8.794511 0.741778,12.97132 -0.956868,2.712928 -1.994835,4.375343 -3.907912,6.258949 -2.587601,2.547737 -5.980192,4.3917 -9.570942,5.202063 l -1.468367,0.331383 3.639377,4.758448 c 2.001656,2.617146 4.869449,6.392053 6.372874,8.388681 2.962522,3.934385 5.26857,6.414922 6.799615,7.314105 1.561654,0.917162 3.746959,1.643319 5.750817,1.910946 l 0.718484,0.09596 v 3.772224 3.772225 l -9.869697,1.52e-4 c -6.655491,1.3e-4 -10.277873,-0.05684 -11.123062,-0.174947 L 52.778699,69.213155 50.080214,65.79009 C 48.596047,63.907404 44.842925,58.932165 41.739942,54.734003 38.636959,50.53584 35.129771,45.936817 33.946192,44.51395 31.471172,41.53859 31.838387,41.73571 28.765409,41.732968 l -1.864684,-0.0017 0.06436,7.071392 c 0.06977,7.665681 0.130146,8.298821 0.951406,9.977417 0.852005,1.741435 2.913251,2.69944 6.759798,3.141752 l 0.869744,0.10001 v 3.77061 3.770608 H 18.831835 2.1176361 Z M 38.089562,32.44698 c 2.406892,-0.327137 3.374124,-0.597255 5.019459,-1.401776 3.18673,-1.558217 5.145093,-4.664846 5.134927,-8.145738 -0.0066,-2.243297 -0.825547,-4.708475 -2.019741,-6.079432 -0.700237,-0.803884 -2.298854,-1.860137 -3.568965,-2.358118 -4.353346,-1.706844 -12.680793,-1.571057 -14.652861,0.238929 -0.199619,0.183214 -0.506849,0.639416 -0.682733,1.013784 -0.311334,0.662675 -0.32101,0.898078 -0.366007,8.904908 l -0.04622,8.224239 4.73527,-0.08208 c 2.954332,-0.05121 5.379003,-0.169574 6.446869,-0.314715 z"
     id="path11"
     transform="matrix(3.1250104,0,0,3.1250104,-0.00153891,0)" />
  <path
     style="fill:#81f881;stroke:none;stroke-width:0.15126;fill-opacity:1"
     d="m 2.1176361,65.795791 v -3.691669 l 0.7941135,-0.103411 c 1.4530306,-0.189219 3.6552404,-0.709256 4.3132057,-1.018536 0.9659798,-0.454064 2.08625,-1.537859 2.5325776,-2.45012 0.2855101,-0.583562 0.4355671,-1.219567 0.5425461,-2.299543 0.09026,-0.911223 0.130996,-8.830105 0.104546,-20.32471 L 10.361291,17.075967 10.015913,16.221789 C 9.1457267,14.069676 7.2151748,12.867246 3.9597525,12.449755 3.0854201,12.337626 2.5056488,12.187428 2.384688,12.041711 2.2460226,11.874666 2.1784474,10.837844 2.1394983,8.2797059 L 2.0857306,4.7482995 17.41673,4.7575828 c 8.43205,0.00511 18.972578,0.068083 23.423395,0.13995 7.146424,0.1153921 8.312873,0.1679656 9.978499,0.4497449 4.257161,0.7201983 7.166076,1.7491482 9.724989,3.4399525 6.350846,4.1963298 8.737502,12.6704028 5.638219,20.0190888 -0.897035,2.126949 -1.682079,3.280867 -3.397139,4.993367 -2.821131,2.816922 -6.219008,4.648992 -10.114639,5.453623 -0.516576,0.106697 -0.939229,0.24235 -0.939229,0.30145 0,0.115739 8.853368,11.795904 11.392109,15.029503 0.847328,1.079244 2.258607,2.687646 3.136175,3.574226 1.418879,1.433449 1.75748,1.690726 3.057508,2.323153 0.804062,0.391153 1.532473,0.667591 1.618691,0.614305 0.08622,-0.05329 0.156761,-0.01752 0.156761,0.07949 0,0.097 0.102101,0.137191 0.22689,0.0893 0.124789,-0.04789 0.226889,-0.03358 0.226889,0.03179 0,0.120823 1.666929,0.544533 2.83612,0.7209 l 0.642854,0.09697 v 3.699665 3.699664 l -10.550366,-0.07372 c -5.802701,-0.04055 -10.80189,-0.131542 -11.109311,-0.202209 -0.489036,-0.112416 -0.789904,-0.421716 -2.40558,-2.473012 -1.01565,-1.289489 -4.666144,-6.10522 -8.11221,-10.701625 -3.446064,-4.596405 -6.339793,-8.3571 -6.430506,-8.3571 -0.09071,0 -0.122906,-0.04203 -0.07153,-0.0934 0.09286,-0.09286 -1.319977,-1.942513 -3.189947,-4.176221 C 31.78214,41.79609 31.44392,41.65567 28.866191,41.65567 H 26.81964 l 0.05821,6.012574 c 0.03202,3.306915 0.123946,6.810692 0.204293,7.786172 0.228219,2.770826 0.926125,4.226061 2.449156,5.106845 0.888627,0.5139 2.745739,1.135739 2.972791,0.995414 0.08091,-0.05 0.186193,-0.02767 0.233964,0.04962 0.04777,0.0773 0.69911,0.224207 1.447419,0.326469 l 1.360562,0.185928 v 3.684383 3.684381 H 18.831835 2.1176361 Z M 36.377963,32.652472 c 5.071982,-0.27416 8.287768,-1.702116 10.3396,-4.591257 0.258482,-0.363963 0.433155,-0.721314 0.388162,-0.794114 -0.04499,-0.0728 -0.0181,-0.132363 0.05976,-0.132363 0.195686,0 0.713636,-1.262232 0.939357,-2.289199 0.202767,-0.92253 0.146058,-4.000659 -0.08046,-4.367171 -0.07245,-0.117232 -0.147463,-0.360677 -0.166686,-0.540988 -0.05131,-0.481232 -0.678669,-1.878225 -0.843473,-1.878225 -0.07786,0 -0.104747,-0.05956 -0.05976,-0.132363 0.122312,-0.197904 -0.698891,-1.260641 -1.447388,-1.873102 -1.630569,-1.334219 -4.384109,-2.380838 -6.908579,-2.625945 -3.568555,-0.346481 -7.117331,-0.182769 -9.062647,0.418078 -0.945726,0.292105 -2.082794,1.093711 -1.921534,1.354636 0.04624,0.07481 0.02291,0.136021 -0.05184,0.136021 -0.07475,0 -0.22449,0.187184 -0.33276,0.415964 -0.232837,0.492001 -0.282517,1.992102 -0.356453,10.763166 l -0.05407,6.414446 4.023088,-0.09791 c 2.212697,-0.05385 4.703756,-0.134702 5.535684,-0.179672 z"
     id="path13"
     transform="matrix(3.1250104,0,0,3.1250104,-0.00153891,0)" />
  <path
     style="fill:#7aff7a;stroke-width:0.15126;fill-opacity:1"
     d="m 79.260094,65.728283 v -3.759179 l 1.247893,-0.09614 c 2.299572,-0.177163 4.152006,-0.847037 5.261811,-1.90277 0.754824,-0.718048 1.452071,-2.218761 1.657126,-3.5667 0.109207,-0.717875 0.147508,-7.171432 0.118949,-20.041913 L 87.503749,17.378486 87.17923,16.521168 c -0.931,-2.459527 -2.454569,-3.448693 -6.16653,-4.003571 L 79.260094,12.255611 V 8.5019554 4.7482995 h 20.404037 c 12.726179,0 20.993469,0.057981 21.970479,0.1540856 6.17817,0.6077274 10.20753,2.376105 13.51595,5.9317839 4.63705,4.983609 6.30085,12.726173 4.16112,19.363954 -0.86355,2.67885 -2.00108,4.543446 -4.00209,6.560057 -3.31891,3.344795 -8.12789,5.322745 -15.05811,6.19345 -1.5573,0.195656 -3.72055,0.273522 -9.1134,0.328034 l -7.07139,0.07148 V 48.8981 c 0,7.231841 0.24847,9.108741 1.40825,10.637665 0.89984,1.186242 3.28586,2.101088 6.10036,2.339002 l 1.11319,0.0941 v 3.759298 3.759297 H 95.974294 79.260094 Z M 111.62967,34.629314 c 4.41879,-0.670017 7.73369,-2.771616 9.19691,-5.830719 2.51088,-5.249399 0.50877,-11.937747 -4.28096,-14.301212 -3.50774,-1.730869 -9.3997,-1.631321 -11.30263,0.190963 -1.02856,0.984974 -1.16601,2.405202 -1.17163,12.106058 l -0.005,8.05458 3.06301,-9.07e-4 c 1.89592,-6.05e-4 3.61053,-0.08391 4.49997,-0.218778 z"
     id="path15"
     transform="matrix(3.1250104,0,0,3.1250104,-0.00153891,0)" />
  <path
     style="fill:#00ff00;stroke-width:0.15126"
     d="m 165.07176,70.391871 c -6.13705,-0.596317 -12.3202,-3.533967 -16.10062,-7.649493 -3.04813,-3.318315 -5.18893,-8.474029 -5.88929,-14.183199 -0.28597,-2.331203 -0.10386,-6.682697 0.37508,-8.962521 0.99997,-4.760002 2.85358,-8.277899 6.05578,-11.492996 3.41658,-3.430354 7.49973,-5.439034 13.52828,-6.655156 3.74211,-0.754883 8.94848,-0.660128 13.33681,0.242728 5.4716,1.125727 9.27353,3.059135 12.62333,6.419386 3.58023,3.591395 5.83755,8.091319 6.64293,13.242532 1.02714,6.569582 -0.38024,13.649618 -3.73693,18.799231 -1.64012,2.516179 -3.37746,4.241131 -6.08456,6.041214 -3.38216,2.248952 -6.77553,3.457133 -11.13914,3.965987 -2.40455,0.280403 -7.77962,0.410303 -9.61167,0.232287 z m 8.02295,-9.715327 c 2.78771,-1.331063 4.43949,-4.222046 5.12053,-8.962101 0.12738,-0.886515 0.19417,-2.996836 0.1915,-6.050389 -0.004,-5.016973 -0.11744,-6.014461 -0.98566,-8.697434 -1.39687,-4.316623 -4.01167,-6.403914 -8.01019,-6.394221 -3.81798,0.0093 -6.65617,2.252028 -7.99608,6.318591 -0.95806,2.907663 -1.41349,7.853635 -1.09587,11.901006 0.59168,7.539768 2.52899,11.183309 6.53752,12.295263 0.58029,0.160969 1.42469,0.216054 2.93258,0.191305 2.10413,-0.03454 2.12521,-0.03838 3.30567,-0.60202 z"
     id="path17"
     transform="matrix(3.1250104,0,0,3.1250104,-0.00153891,0)" />
  <path
     style="fill:#00ffff;stroke-width:0.15126;fill-opacity:1"
     d="m 163.89406,70.166539 c -7.91037,-1.29736 -14.34081,-5.445614 -17.53875,-11.314192 -1.422,-2.609528 -2.52659,-5.983526 -3.0505,-9.317856 -0.35707,-2.272429 -0.22556,-7.740207 0.2386,-9.920826 1.70791,-8.023705 6.64495,-13.778839 14.25977,-16.622702 1.77545,-0.663068 5.29971,-1.536366 7.06595,-1.750917 1.64919,-0.200332 6.09821,-0.200385 7.98888,-9.6e-5 3.69805,0.391756 7.68325,1.471138 10.32064,2.795321 7.89728,3.965067 12.70021,12.144573 12.70021,21.628783 0,4.33617 -0.90504,8.27087 -2.78337,12.100778 -1.79972,3.669635 -3.89596,6.052537 -7.35904,8.365378 -3.13492,2.093674 -6.53164,3.331255 -10.69102,3.895228 -2.45256,0.332543 -9.44465,0.421017 -11.15137,0.141101 z m 9.41213,-9.508885 c 2.91781,-1.559056 4.62706,-4.942435 5.05293,-10.002029 0.0999,-1.186248 0.13187,-3.646653 0.0807,-6.201649 -0.0694,-3.466751 -0.13904,-4.468572 -0.38365,-5.520979 -1.27723,-5.49506 -3.72529,-8.064679 -8.00857,-8.406212 -3.31386,-0.264237 -6.29533,1.40825 -7.85311,4.405293 -1.43134,2.753763 -1.93057,5.651699 -1.927,11.185755 0.002,3.410391 0.0483,4.193935 0.3474,5.89913 0.80349,4.581452 2.26018,7.227174 4.69311,8.523916 1.27875,0.681563 1.78413,0.764105 4.48103,0.731861 l 2.42015,-0.02893 z"
     id="path19"
     transform="matrix(3.1250104,0,0,3.1250104,-0.00153891,0)" />
  <path
     style="fill:#00ffff;stroke-width:0.15126;fill-opacity:1"
     d="m 34.234235,95.946056 c -0.605127,-0.179037 -1.520905,-1.213446 -2.460946,-2.779744 -1.223678,-2.03889 -1.326273,-2.276215 -3.356869,-7.765266 -0.128205,-0.346557 -0.129032,-0.346342 -1.034553,0.268585 -0.498434,0.338481 -1.639128,1.314399 -2.534873,2.168707 -0.895745,0.854308 -2.031138,1.849899 -2.523097,2.212423 -2.188409,1.612641 -5.622072,3.384665 -7.456243,3.84797 -1.781802,0.450078 -13.7755474,0.714202 -14.41742812,0.317498 -0.0836431,-0.05169 -0.14770644,-0.930258 -0.14770644,-2.025645 v -1.934357 l 1.77730176,-0.0906 C 5.8289259,89.974496 7.3293189,89.07575 13.03047,83.606108 c 1.670245,-1.60242 3.134284,-2.845207 4.348758,-3.691554 5.961266,-4.154306 4.773785,-3.799128 12.506099,-3.740601 5.711729,0.04323 5.909294,0.05458 6.613933,0.379867 1.083894,0.500364 2.565029,2.02262 3.864447,3.971735 0.636398,0.954592 1.412337,1.992611 1.724311,2.306711 0.49485,0.498222 0.657414,0.571089 1.274084,0.571089 h 0.70686 l 2.50741,-2.55957 c 2.487124,-2.538864 2.514512,-2.560991 3.385741,-2.735183 0.606217,-0.121205 2.644701,-0.158267 6.579798,-0.119628 6.634643,0.06515 6.162165,-0.03034 8.96551,1.811828 1.744162,1.146142 5.285863,2.859244 7.097245,3.4329 0.540754,0.171254 1.459657,0.384462 2.042007,0.473796 0.58235,0.08933 3.713426,1.039174 6.957947,2.110756 3.244521,1.071582 7.022233,2.301433 8.394915,2.733001 1.372681,0.431569 3.00074,0.985199 3.617908,1.23029 1.957703,0.777448 2.650131,0.898248 5.911454,1.031307 2.741023,0.111831 3.460623,0.19962 6.201653,0.756583 2.09686,0.426074 3.3212,0.605386 3.78149,0.553825 0.37437,-0.04193 2.51847,-0.801445 4.76468,-1.687798 4.20692,-1.660048 10.0631,-3.49688 13.53774,-4.246204 2.23251,-0.481451 3.0204,-0.736635 4.26162,-1.380266 1.29743,-0.672784 3.22834,-2.467964 4.2459,-3.947444 0.43723,-0.635705 0.96513,-1.241759 1.17311,-1.346787 0.56594,-0.285791 11.72323,-0.272217 12.8041,0.01558 1.77328,0.472154 2.47405,1.061828 6.01424,5.060812 2.88555,3.259503 3.15547,3.442641 4.83771,3.282436 0.5912,-0.0563 2.91272,-0.337802 5.15892,-0.625557 2.24621,-0.287755 6.30554,-0.793703 9.02073,-1.12433 2.71518,-0.330627 7.13953,-0.938663 9.83188,-1.35119 5.26443,-0.80663 8.33418,-1.149285 11.73157,-1.309516 l 2.14734,-0.101276 0.10402,0.414445 c 0.10153,0.40454 -0.0107,2.216996 -0.1788,2.886626 -0.17896,0.713046 -0.44778,0.762764 -15.03498,2.780627 -3.03654,0.420048 -6.77066,0.901956 -8.29805,1.070906 -2.31155,0.255687 -3.53928,0.498047 -7.32381,1.445751 -2.68261,0.671765 -4.98588,1.337114 -5.61783,1.622831 l -1.07112,0.484261 -6.35291,0.04179 c -5.96395,0.03923 -6.38532,0.02445 -6.88231,-0.241316 -0.32378,-0.173142 -1.04267,-0.953135 -1.85084,-2.008161 -1.55278,-2.027093 -2.303,-2.745624 -3.24057,-3.103683 -0.66551,-0.254161 -0.72981,-0.251713 -2.14605,0.08172 -8.47478,1.9953 -11.38413,2.921086 -16.13217,5.133443 -1.08151,0.50393 -2.37478,1.019545 -2.87393,1.145811 -1.2548,0.317414 -7.98574,0.687864 -12.51829,0.688968 -2.05988,4.54e-4 -5.5961,-0.104491 -7.85829,-0.233319 -3.855397,-0.21956 -4.307762,-0.276878 -7.221104,-0.914976 -2.736894,-0.599452 -3.634836,-0.72293 -7.519445,-1.034003 l -4.411402,-0.353259 -2.546545,-0.993159 c -1.400601,-0.546239 -4.112085,-1.476569 -6.02552,-2.067403 -1.913436,-0.590833 -4.976445,-1.579543 -6.806688,-2.197132 -3.856923,-1.301463 -5.925613,-1.853329 -7.411726,-1.977233 -1.491728,-0.124373 -2.08435,0.21821 -3.441892,1.989687 -0.57034,0.744245 -1.25444,1.583134 -1.520219,1.864197 -0.770127,0.814409 -5.868973,5.305608 -6.522345,5.745054 l -0.593758,0.39935 -6.515449,0.02725 c -3.707742,0.0155 -6.722243,-0.03394 -6.995322,-0.114732 z"
     id="path21"
     transform="matrix(3.1250104,0,0,3.1250104,-0.00153891,0)" />
  <path
     style="fill:#00ff00;fill-opacity:1;stroke-width:0.15126"
     d="m 2.1527619,65.832051 0.040504,-3.655407 1.5125972,-0.254628 c 3.0458677,-0.512734 4.0372843,-0.935157 5.2375972,-2.231639 1.5441817,-1.6679 1.4118017,0.383829 1.4593877,-22.618662 L 10.444404,16.983638 9.988808,16.029022 C 8.9620947,13.877737 7.2975685,12.899573 3.6584959,12.308992 2.7546696,12.162311 2.5303733,12.070006 2.4323921,11.804414 2.366437,11.625632 2.2673226,9.9731586 2.2121377,8.1322493 L 2.1118017,4.7851416 20.07681,4.8492176 c 22.130623,0.078933 28.789811,0.2171048 31.124606,0.6458033 4.041902,0.7421455 6.869421,1.7714379 9.390544,3.4184089 1.268601,0.8287368 3.352221,2.9614272 4.26816,4.3686782 3.435712,5.278631 3.411678,12.608701 -0.05893,17.973715 -0.861082,1.331099 -3.081102,3.569661 -4.599819,4.638243 -2.087948,1.469097 -4.646391,2.600185 -7.373911,3.260007 -0.603148,0.14591 -1.096633,0.3375 -1.096633,0.425756 0,0.268129 10.35598,13.897201 12.491043,16.438939 1.517837,1.806948 3.622713,3.785131 4.564221,4.289502 1.102078,0.59039 3.182701,1.283873 4.801766,1.600457 l 1.361337,0.26619 0.04049,3.64842 0.04049,3.648421 -7.981622,-0.07165 c -4.3899,-0.0394 -9.295702,-0.111515 -10.901789,-0.160246 -2.792655,-0.08473 -2.93889,-0.104365 -3.349152,-0.449577 C 52.264495,68.341697 50.132654,65.596569 43.432582,56.731123 34.873218,45.405489 34.415887,44.808603 33.330547,43.546418 31.835463,41.807725 31.475826,41.655672 28.858556,41.655672 h -2.085585 l 0.0069,3.516788 c 0.0038,1.934234 0.06913,5.252494 0.145169,7.373912 0.184758,5.155017 0.466601,6.278538 1.889131,7.530698 0.731497,0.643888 2.266628,1.340996 3.404124,1.545823 0.374368,0.06741 1.123104,0.200561 1.663857,0.295888 0.540754,0.09533 1.136339,0.20497 1.323523,0.243649 l 0.340334,0.07033 v 3.627352 l -10e-7,3.627351 H 18.829146 2.1122577 Z M 33.882178,32.80026 c 4.708116,-0.130705 6.953423,-0.52309 9.226843,-1.612466 1.029501,-0.493315 1.529428,-0.860571 2.508753,-1.842976 1.993397,-1.999665 2.634077,-3.579263 2.634077,-6.494313 0,-4.517933 -1.921375,-7.210563 -6.201648,-8.691039 -2.175961,-0.752629 -3.079806,-0.864992 -6.957948,-0.864992 -2.869183,0 -3.773355,0.05153 -4.689051,0.267226 -1.555004,0.366291 -2.592843,0.983909 -3.032311,1.804532 -0.323229,0.603564 -0.356727,0.904002 -0.460466,4.12989 -0.06153,1.913436 -0.117634,5.747676 -0.124667,8.520533 l -0.01279,5.041559 2.004191,-0.08593 c 1.102305,-0.04726 3.399562,-0.124671 5.105016,-0.172019 z"
     id="path870"
     transform="matrix(3.1250104,0,0,3.1250104,-0.00153891,0)" />
  <path
     style="fill:url(#linearGradient2842);fill-opacity:1;stroke-width:0.15126"
     d="m 79.260094,65.800505 v -3.686956 l 0.472687,-0.09454 c 0.259978,-0.052 0.685396,-0.09572 0.945373,-0.09716 0.680031,-0.0038 2.299388,-0.370569 3.30149,-0.7478 1.702175,-0.640767 3.000662,-2.29085 3.43258,-4.362034 0.116986,-0.560982 0.167155,-6.609876 0.167155,-20.153767 V 17.306039 l -0.392015,-0.979236 c -0.424777,-1.061072 -1.283313,-2.147109 -2.092856,-2.647435 -0.776667,-0.480006 -2.10675,-0.892664 -3.70716,-1.150144 -0.795622,-0.128003 -1.599735,-0.264734 -1.786919,-0.303847 l -0.340335,-0.07112 V 8.4275881 4.7009141 L 100.17175,4.805605 c 12.41309,0.062144 21.43417,0.1667954 22.19736,0.2575059 1.83222,0.2177717 3.99863,0.6763793 5.38547,1.1400496 7.4645,2.4956647 12.34274,9.5960035 12.35442,17.9820135 0.006,4.329307 -1.22457,8.106916 -3.6136,11.092837 -3.22798,4.034469 -7.96841,6.353238 -15.2371,7.453178 -1.62022,0.245181 -3.28297,0.326562 -8.94796,0.437939 -3.82687,0.07524 -7.25336,0.139859 -7.61442,0.1436 l -0.65647,0.0068 0.068,6.541983 c 0.072,6.918117 0.13829,7.618374 0.85285,9.004715 0.7781,1.509611 3.08334,2.679349 5.86701,2.977068 0.48287,0.05164 1.09916,0.128153 1.36954,0.170022 l 0.49159,0.07613 v 3.699008 3.699003 H 95.974294 79.260094 Z M 113.36916,34.346539 c 5.61251,-1.481666 8.54618,-5.073627 8.54618,-10.463885 0,-4.560118 -2.32987,-8.298638 -6.07943,-9.755089 -3.37375,-1.310475 -8.34722,-1.17399 -10.36035,0.284315 -1.28638,0.931848 -1.4028,1.964475 -1.40625,12.47305 l -0.003,7.993846 3.89494,-0.06646 c 3.60756,-0.06156 4.00654,-0.09592 5.40753,-0.465777 z"
     id="path872"
     transform="matrix(3.1250104,0,0,3.1250104,-0.00153891,0)" />
</svg>
